<svg xmlns="http://www.w3.org/2000/svg" viewBox="0 0 1366 768"><defs><style>.cls-1,.cls-3{fill:#fff;}.cls-2,.cls-4{fill:none;}.cls-2,.cls-3,.cls-4{stroke:#000;stroke-miterlimit:10;stroke-width:5px;}.cls-4{stroke-linecap:square;}</style></defs><g id="Слой_2" data-name="Слой 2"><rect class="cls-1" width="1366" height="768"/><rect class="cls-1" x="316.84" y="315.5" width="325.33" height="279"/></g><g id="Слой_1" data-name="Слой 1"><line class="cls-2" x1="952" y1="321" x2="952" y2="408"/><line class="cls-2" x1="641" y1="456" x2="641" y2="458.72"/><line class="cls-2" x1="641" y1="410.06" x2="641" y2="456"/><line class="cls-2" x1="641" y1="408.5" x2="641" y2="410.06"/><polyline class="cls-3" points="762.35 407.67 636.61 407.67 636.61 592.67 952.61 592.67 952.61 407.67 819.5 407.67"/><polyline class="cls-3" points="761.91 320.67 636.17 320.67 636.17 135.67 952.17 135.67 952.17 320.67 819.06 320.67"/><polyline class="cls-3" points="510.43 321.33 636.17 321.33 636.17 136.33 320.17 136.33 320.17 321.33 453.28 321.33"/><line class="cls-4" x1="320" y1="321" x2="320" y2="593"/><line class="cls-4" x1="511.06" y1="593" x2="637" y2="593"/><line class="cls-4" x1="320" y1="593" x2="446.17" y2="593"/><line class="cls-4" x1="510" y1="320" x2="465" y2="282"/><line class="cls-4" x1="818.67" y1="319.83" x2="773.67" y2="281.83"/><line class="cls-4" x1="774.67" y1="446.83" x2="819.67" y2="408.83"/><line class="cls-4" x1="507.67" y1="591.72" x2="462.67" y2="553.72"/></g></svg>